<svg xmlns="http://www.w3.org/2000/svg" viewBox="0 0 1920 1080" width="1920" height="1080">
  <defs>
    <radialGradient id="bg" cx="50%" cy="40%" r="60%">
      <stop offset="0%" stop-color="#1a0a2e"/>
      <stop offset="100%" stop-color="#0a0a0f"/>
    </radialGradient>
    <radialGradient id="glow1" cx="50%" cy="50%" r="50%">
      <stop offset="0%" stop-color="#8b5cf6" stop-opacity="0.15"/>
      <stop offset="100%" stop-color="#8b5cf6" stop-opacity="0"/>
    </radialGradient>
    <radialGradient id="glow2" cx="50%" cy="50%" r="50%">
      <stop offset="0%" stop-color="#f472b6" stop-opacity="0.08"/>
      <stop offset="100%" stop-color="#f472b6" stop-opacity="0"/>
    </radialGradient>
  </defs>
  <rect width="1920" height="1080" fill="url(#bg)"/>
  <ellipse cx="960" cy="400" rx="700" ry="500" fill="url(#glow1)"/>
  <ellipse cx="1200" cy="600" rx="500" ry="400" fill="url(#glow2)"/>
  <!-- Stars -->
  <g fill="white" opacity="0.4">
    <circle cx="200" cy="150" r="1.5"/>
    <circle cx="400" cy="80" r="1"/>
    <circle cx="650" cy="200" r="1.5"/>
    <circle cx="900" cy="100" r="1"/>
    <circle cx="1100" cy="180" r="1.5"/>
    <circle cx="1350" cy="90" r="1"/>
    <circle cx="1600" cy="160" r="1.5"/>
    <circle cx="1800" cy="120" r="1"/>
    <circle cx="100" cy="300" r="1"/>
    <circle cx="300" cy="350" r="1.5"/>
    <circle cx="500" cy="280" r="1"/>
    <circle cx="750" cy="320" r="1.5"/>
    <circle cx="1050" cy="270" r="1"/>
    <circle cx="1250" cy="340" r="1.5"/>
    <circle cx="1500" cy="290" r="1"/>
    <circle cx="1700" cy="310" r="1.5"/>
    <circle cx="1900" cy="250" r="1"/>
  </g>
  <!-- Cover placeholder text -->
  <text x="960" y="520" text-anchor="middle" font-family="Georgia, serif" font-size="18" fill="rgba(167,139,250,0.4)" letter-spacing="6">
    COVER IMAGE — Replace in /public/cover.jpg
  </text>
</svg>
